<svg xmlns="http://www.w3.org/2000/svg" width="45" height="45"><defs><pattern id="atlas" width="12" height="12" patternUnits="userSpaceOnUse">
      <rect width="12" height="12" fill="#1c2b73"/>
      <path d="M0 0H3.6L5 1.5L3.6 3L5 4.5L3.6 6L5 7.5L3.6 9L5 10.5L3.6 12H0Z" fill="#0e9a78"/>
      <path d="M0 0H1.6L2.5 1.5L1.6 3L2.5 4.5L1.6 6L2.5 7.5L1.6 9L2.5 10.5L1.6 12H0Z" fill="#0a5e50"/>
      <rect x="6.3" width="1.3" height="12" fill="#3fc1d1"/>
      <path d="M9.6 3C12.3 4.8 11.8 8.2 9.6 9C7.3999999999999995 8.2 6.8999999999999995 4.8 9.6 3Z" fill="#e2578f"/>
      <path d="M9.6 4.9L10.7 6L9.6 7.1L8.5 6Z" fill="#1c2b73"/></pattern></defs><g fill="none" fill-rule="evenodd" stroke="#000" stroke-width="1.5" stroke-linecap="round" stroke-linejoin="round"><path d="M22 10c10.5 1 16.5 8 16 29H15c0-9 10-6.5 8-21" fill="url(#atlas)"/><path d="M24 18c.38 2.91-5.55 7.37-8 9-3 2-2.82 4.34-5 4-1.042-.94 1.41-3.04 0-3-1 0 .19 1.23-1 2-1 0-4.003 1-4-4 0-2 6-12 6-12s1.89-1.9 2-3.5c-.73-.994-.5-2-.5-3 1-1 3 2.5 3 2.5h2s.78-1.992 2.5-3c1 0 1 3 1 3" fill="url(#atlas)"/><path d="M9.5 25.5a.5.5 0 1 1-1 0 .5.5 0 1 1 1 0zm5.433-9.75a.5 1.5 30 1 1-.866-.5.5 1.5 30 1 1 .866.5z" fill="#ececec" stroke="#ececec"/><path d="M24.55 10.4l-.45 1.45.5.15c3.15 1 5.65 2.49 7.9 6.75S35.75 29.06 35.25 39l-.05.5h2.25l.05-.5c.5-10.06-.88-16.85-3.25-21.34-2.37-4.49-5.79-6.64-9.19-7.16l-.51-.1z" fill="#ececec" stroke="none"/></g></svg>